<svg width="16" height="7" viewBox="0 0 16 7" fill="none" xmlns="http://www.w3.org/2000/svg">
<path d="M15.8329 4.15154C15.7187 4.25384 15.5758 4.30769 15.4273 4.30769C15.2787 4.30769 15.1359 4.25384 15.0216 4.15154L14.0332 3.21461C13.4905 3.63461 12.8563 4.03307 12.1593 4.37231L13.0448 5.62692C13.222 5.86922 13.1477 6.20846 12.8849 6.37C12.7877 6.43462 12.6792 6.46154 12.5706 6.46154C12.3878 6.46154 12.205 6.37538 12.0964 6.21924L11.108 4.81924C10.3082 5.10461 9.45691 5.30385 8.57134 5.36307V6.46154C8.57134 6.7577 8.31426 7 8.00002 7C7.68578 7 7.42869 6.7577 7.42869 6.46154V5.36307C6.54312 5.30384 5.69186 5.10461 4.892 4.81924L3.90361 6.21924C3.79506 6.37539 3.61223 6.46154 3.4294 6.46154C3.32085 6.46154 3.2123 6.43462 3.11517 6.37C2.85236 6.20846 2.77807 5.86924 2.95519 5.62692L3.84076 4.37231C3.14374 4.03307 2.50958 3.63463 1.96681 3.21461L0.978422 4.15154C0.864157 4.25384 0.721334 4.30769 0.572771 4.30769C0.424208 4.30769 0.281385 4.25384 0.16712 4.15154C-0.0557066 3.94153 -0.0557066 3.59691 0.16712 3.38692L1.13265 2.47693C0.418504 1.76078 0.00142601 1.05539 0.00142601 0.538462C0.00142601 0.2423 0.258514 0 0.572753 0C0.886991 0 1.14408 0.2423 1.14408 0.538462C1.14408 1.14154 4.06927 4.3077 8 4.3077C11.9307 4.3077 14.8559 1.14154 14.8559 0.538462C14.8559 0.2423 15.113 0 15.4272 0C15.7415 0 15.9986 0.2423 15.9986 0.538462C15.9986 1.05539 15.5815 1.76078 14.8673 2.47693L15.8329 3.38692C16.0557 3.59693 16.0557 3.94154 15.8329 4.15154Z" fill="black"/>
</svg>
