<svg width="16" height="13" viewBox="0 0 16 13" fill="none" xmlns="http://www.w3.org/2000/svg">
<path d="M8 0C12 0 15.3333 2.81667 16 6.5C15.3333 10.1833 12 13 8 13C4 13 0.666667 10.1833 0 6.5C0.666667 2.81667 4 0 8 0ZM8 11.5556C11.1111 11.5556 13.8519 9.46111 14.5185 6.5C13.8519 3.53889 11.1852 1.44444 8 1.44444C4.88889 1.44444 2.14815 3.53889 1.48148 6.5C2.14815 9.46111 4.88889 11.5556 8 11.5556ZM8 9.75C6.14815 9.75 4.66667 8.30556 4.66667 6.5C4.66667 4.69444 6.14815 3.25 8 3.25C9.85185 3.25 11.3333 4.69444 11.3333 6.5C11.3333 8.30556 9.85185 9.75 8 9.75ZM8 8.30556C9.03704 8.30556 9.85185 7.51111 9.85185 6.5C9.85185 5.48889 9.03704 4.69444 8 4.69444C6.96296 4.69444 6.14815 5.48889 6.14815 6.5C6.14815 7.51111 6.96296 8.30556 8 8.30556Z" fill="black"/>
</svg>
